# This file uses centimeters as units for non-parametric coordinates.

mtllib Tred_Grass.mtl
g default
v -6.754812 -0.500000 4.853066
v -5.754812 -0.500000 4.853066
v -6.754812 0.500000 5.431555
v -5.754812 0.500000 5.431555
v -6.754812 0.500000 0.626481
v -5.754812 0.500000 0.626481
v -6.754812 -0.500000 1.204970
v -5.754812 -0.500000 1.204970
v -6.754812 -0.054854 5.431555
v -6.754812 -0.054854 0.626481
v -5.754812 -0.054854 0.626481
v -5.754812 -0.054854 5.431555
v 5.777043 -0.500000 4.853066
v 6.777043 -0.500000 4.853066
v 5.777043 0.500000 5.431555
v 6.777043 0.500000 5.431555
v 5.777043 0.500000 0.626481
v 6.777043 0.500000 0.626481
v 5.777043 -0.500000 1.204970
v 6.777043 -0.500000 1.204970
v 5.777043 -0.054854 5.431555
v 5.777043 -0.054854 0.626481
v 6.777043 -0.054854 0.626481
v 6.777043 -0.054854 5.431555
vt 0.512141 0.700202
vt 0.534549 0.710115
vt 0.503850 0.726753
vt 0.528037 0.731952
vt 0.472647 0.784256
vt 0.491804 0.768608
vt 0.492743 0.808880
vt 0.511917 0.793231
vt 0.549834 0.878835
vt 0.569010 0.863185
vt 0.602012 0.692943
vt 0.617481 0.708780
vt 0.456103 0.635242
vt 0.429320 0.640387
vt 0.512141 0.717993
vt 0.439292 0.631780
vt 0.481325 0.794887
vt 0.500490 0.779239
vt 0.614806 0.698452
vt 0.526616 0.721626
vt 0.498991 0.730708
vt 0.521402 0.740627
vt 0.513472 0.752134
vt 0.498991 0.748499
vt 0.490705 0.757255
vt 0.514893 0.762460
vt 0.467090 0.793024
vt 0.447123 0.807568
vt 0.454935 0.818257
vt 0.473421 0.803844
vt 0.484349 0.816947
vt 0.465827 0.832172
vt 0.540622 0.884459
vt 0.522090 0.899878
vt 0.588838 0.723462
vt 0.601627 0.728969
vt 0.442975 0.665810
vt 0.426174 0.662354
vt 0.416209 0.670957
vt 0.604301 0.739293
vt 0.376353 0.711881
vt 0.396287 0.697152
vt 0.397460 0.692207
vt 0.416619 0.676556
vn 0.000000 -0.792521 0.609844
vn 0.000000 -0.792521 0.609844
vn 0.000000 -0.500739 0.865598
vn 0.000000 -0.500739 0.865598
vn 0.000000 1.000000 0.000000
vn 0.000000 1.000000 0.000000
vn 0.000000 1.000000 0.000000
vn 0.000000 1.000000 0.000000
vn 0.000000 -0.500739 -0.865599
vn 0.000000 -0.500739 -0.865599
vn 0.000000 -0.792521 -0.609844
vn 0.000000 -0.792521 -0.609844
vn 0.000000 -1.000000 0.000000
vn 0.000000 -1.000000 0.000000
vn 0.000000 -1.000000 0.000000
vn 0.000000 -1.000000 0.000000
vn 1.000000 0.000001 0.000000
vn 1.000000 0.000001 0.000000
vn 1.000000 0.000000 0.000000
vn 1.000000 0.000000 0.000000
vn -1.000000 -0.000000 0.000000
vn -1.000000 -0.000000 0.000000
vn -1.000000 -0.000000 0.000000
vn -1.000000 -0.000000 0.000000
vn -1.000000 0.000000 0.000000
vn -1.000000 0.000000 0.000000
vn 0.000000 0.000000 -1.000000
vn 0.000000 0.000000 -1.000000
vn 1.000000 0.000000 0.000000
vn 1.000000 0.000000 0.000000
vn 0.000000 0.000000 1.000000
vn 0.000000 0.000000 1.000000
vn 0.000000 -0.792521 0.609844
vn 0.000000 -0.792521 0.609844
vn 0.000000 -0.500739 0.865598
vn 0.000000 -0.500739 0.865598
vn 0.000000 1.000000 0.000000
vn 0.000000 1.000000 0.000000
vn 0.000000 1.000000 0.000000
vn 0.000000 1.000000 0.000000
vn 0.000000 -0.500739 -0.865598
vn 0.000000 -0.500739 -0.865598
vn 0.000000 -0.792521 -0.609844
vn 0.000000 -0.792521 -0.609844
vn 0.000000 -1.000000 0.000000
vn 0.000000 -1.000000 0.000000
vn 0.000000 -1.000000 0.000000
vn 0.000000 -1.000000 0.000000
vn 1.000000 -0.000001 0.000000
vn 1.000000 -0.000001 0.000000
vn 1.000000 -0.000000 0.000000
vn 1.000000 -0.000000 0.000000
vn -1.000000 -0.000000 0.000000
vn -1.000000 -0.000000 0.000000
vn -1.000000 -0.000000 0.000000
vn -1.000000 -0.000000 0.000000
vn -1.000000 0.000000 0.000000
vn -1.000000 0.000000 0.000000
vn 0.000000 0.000000 -1.000000
vn 0.000000 0.000000 -1.000000
vn 1.000000 0.000000 0.000000
vn 1.000000 0.000000 0.000000
vn 0.000000 0.000000 1.000000
vn 0.000000 0.000000 1.000000
s 1
g pCube7
usemtl initialShadingGroup
f 1/1/1 2/2/2 12/20/3 9/15/4
s off
f 3/43/5 4/44/6 6/6/7 5/5/8
s 2
f 10/17/9 11/18/10 8/8/11 7/7/12
s off
f 7/7/13 8/8/14 2/10/15 1/9/16
s 3
f 2/2/17 8/11/18 11/19/19 12/20/20
s 4
f 7/13/21 1/1/22 9/15/23 10/16/24
f 10/16/24 9/15/23 3/3/25 5/14/26
s 2
f 5/5/27 6/6/28 11/18/10 10/17/9
s 3
f 12/20/20 11/19/19 6/12/29 4/4/30
s 1
f 9/15/4 12/20/3 4/4/31 3/3/32
s 5
f 13/21/33 14/22/34 24/23/35 21/24/36
s off
f 15/41/37 16/42/38 18/27/39 17/28/40
s 6
f 22/29/41 23/30/42 20/31/43 19/32/44
s off
f 19/32/45 20/31/46 14/33/47 13/34/48
s 7
f 14/22/49 20/35/50 23/36/51 24/23/52
s 8
f 19/37/53 13/21/54 21/24/55 22/38/56
f 22/38/56 21/24/55 15/25/57 17/39/58
s 6
f 17/28/59 18/27/60 23/30/42 22/29/41
s 7
f 24/23/52 23/36/51 18/40/61 16/26/62
s 5
f 21/24/36 24/23/35 16/26/63 15/25/64
g default
v -11.276907 -1.934047 2.323907
v -11.276907 -0.493155 3.063455
v -12.016456 -0.493155 2.323907
v -6.803814 -0.493155 2.323907
v -7.543362 -0.493155 3.063455
v -7.543362 -1.934047 2.323907
v -12.016456 0.493155 2.323907
v -11.276907 0.493155 3.063455
v -11.276907 1.232703 2.323907
v -7.543362 1.232703 2.323907
v -7.543362 0.493155 3.063455
v -6.803814 0.493155 2.323907
v -12.016456 0.493155 -2.323907
v -11.276907 1.232703 -2.323907
v -11.276907 0.493155 -3.063455
v -7.543362 0.493155 -3.063455
v -7.543362 1.232703 -2.323907
v -6.803814 0.493155 -2.323907
v -12.016456 -0.493155 -2.323907
v -11.276907 -0.493155 -3.063455
v -11.276907 -1.934047 -2.323907
v -7.543362 -1.934047 -2.323907
v -7.543362 -0.493155 -3.063455
v -6.803814 -0.493155 -2.323907
v -5.017070 -1.232703 2.323907
v -5.017070 -0.493155 3.063455
v -5.756618 -0.493155 2.323907
v 5.756618 -0.493155 2.323907
v 5.017070 -0.493155 3.063455
v 5.017070 -1.232703 2.323907
v -5.756618 0.493155 2.323907
v -5.017070 0.493155 3.063455
v -5.017070 2.159130 1.721269
v 5.017070 2.159130 1.721269
v 5.017070 0.493155 3.063455
v 5.756618 0.493155 2.323907
v -5.756618 0.493155 -2.323907
v -5.017070 2.159130 -1.721269
v -5.017070 0.493155 -3.063455
v 5.017070 0.493155 -3.063455
v 5.017070 2.159130 -1.721269
v 5.756618 0.493155 -2.323907
v -5.756618 -0.493155 -2.323907
v -5.017070 -0.493155 -3.063455
v -5.017070 -1.232703 -2.323907
v 5.017070 -1.232703 -2.323907
v 5.017070 -0.493155 -3.063455
v 5.756618 -0.493155 -2.323907
v 7.511285 -1.934047 2.323907
v 7.511285 -0.493155 3.063455
v 6.771737 -0.493155 2.323907
v 11.984379 -0.493155 2.323907
v 11.244830 -0.493155 3.063455
v 11.244830 -1.934047 2.323907
v 6.771737 0.493155 2.323907
v 7.511285 0.493155 3.063455
v 7.511285 1.232703 2.323907
v 11.244830 1.232703 2.323907
v 11.244830 0.493155 3.063455
v 11.984379 0.493155 2.323907
v 6.771737 0.493155 -2.323907
v 7.511285 1.232703 -2.323907
v 7.511285 0.493155 -3.063455
v 11.244830 0.493155 -3.063455
v 11.244830 1.232703 -2.323907
v 11.984379 0.493155 -2.323907
v 6.771737 -0.493155 -2.323907
v 7.511285 -0.493155 -3.063455
v 7.511285 -1.934047 -2.323907
v 11.244830 -1.934047 -2.323907
v 11.244830 -0.493155 -3.063455
v 11.984379 -0.493155 -2.323907
vt 0.274897 0.875258
vt 0.247874 0.884282
vt 0.245965 0.752106
vt 0.276074 0.743716
vt 0.243835 0.498838
vt 0.308693 0.875261
vt 0.293686 0.623492
vt 0.245733 0.633102
vt 0.639094 0.481901
vt 0.651172 0.546943
vt 0.308480 0.542965
vt 0.320569 0.479856
vt 0.651551 0.417128
vt 0.642733 0.448502
vt 0.320569 0.446060
vt 0.307731 0.417128
vt 0.682641 0.432277
vt 0.281656 0.429178
vt 0.715527 0.493412
vt 0.742158 0.495380
vt 0.742848 0.622786
vt 0.708009 0.621132
vt 0.732633 0.652573
vt 0.742519 0.877350
vt 0.695251 0.864911
vt 0.695334 0.746546
vt 0.743776 0.739885
vt 0.034975 0.869405
vt 0.097056 0.505971
vt 0.098846 0.632723
vt 0.034906 0.751011
vt 0.094798 0.885426
vt 0.069404 0.872520
vt 0.068555 0.748799
vt 0.098600 0.752105
vt 0.642731 0.238390
vt 0.651551 0.269763
vt 0.307731 0.269763
vt 0.320569 0.240831
vt 0.682640 0.254615
vt 0.281656 0.257713
vt 0.651172 0.139948
vt 0.639093 0.204990
vt 0.320569 0.207035
vt 0.308480 0.143927
vt 0.307731 0.037561
vt 0.651551 0.037561
vt 0.931861 0.864906
vt 0.887563 0.877336
vt 0.886308 0.739883
vt 0.931777 0.746544
vt 0.891104 0.495594
vt 0.917562 0.494890
vt 0.919143 0.622820
vt 0.890211 0.622820
vt 0.896872 0.652930
vt 0.028902 0.899579
vt 0.076966 0.913462
vt 0.263057 0.914636
vt 0.265900 0.456897
vt 0.673533 0.195435
vt 0.673533 0.491457
vt 0.916486 0.912223
vt 0.965492 0.860159
vt 0.898112 0.462709
vt 0.656823 0.894704
vt 0.713594 0.912227
vt 0.071375 0.671022
vt 0.080488 0.719310
vt 0.263404 0.722004
vt 0.273701 0.671009
vt 0.298528 0.207035
vt 0.298528 0.479856
vt 0.913967 0.701445
vt 0.965573 0.716442
vt 0.965573 0.751320
vt 0.661538 0.751323
vt 0.661538 0.716445
vt 0.716117 0.701446
vt 0.074582 0.463461
vt 0.251438 0.947884
vt 0.715179 0.263817
vt 0.777060 0.284466
vt 0.777060 0.402425
vt 0.715178 0.423074
vt 0.182223 0.284467
vt 0.244104 0.263817
vt 0.244104 0.423074
vt 0.182223 0.402425
vt 0.735941 0.462196
vt 0.970277 0.894711
vt 0.661622 0.860158
vt 0.736902 0.953768
vt 0.896159 0.953768
vt 0.308692 0.756883
vt 0.308692 0.726781
vt 0.050579 0.624236
vt 0.034528 0.721680
vt 0.053984 0.505891
vt 0.286591 0.505327
vt 0.308687 0.910140
vt 0.092185 0.949075
vn -0.889659 -0.456625 0.000000
vn -0.889659 -0.456625 0.000000
vn -0.889659 -0.456625 0.000000
vn -0.889659 -0.456625 0.000000
vn 0.000000 -0.456624 0.889660
vn 0.000000 -0.456624 0.889660
vn 0.000000 -0.456624 0.889660
vn 0.000000 -0.456624 0.889660
vn -0.707106 0.000000 0.707107
vn -0.707106 0.000000 0.707107
vn -0.707106 0.000000 0.707107
vn -0.707106 0.000000 0.707107
vn 0.889660 -0.456624 0.000000
vn 0.889660 -0.456624 0.000000
vn 0.889660 -0.456624 0.000000
vn 0.889660 -0.456624 0.000000
vn 0.707107 0.000000 0.707107
vn 0.707107 0.000000 0.707107
vn 0.707107 0.000000 0.707107
vn 0.707107 0.000000 0.707107
vn -0.707106 0.707107 0.000000
vn -0.707106 0.707107 0.000000
vn -0.707106 0.707107 0.000000
vn -0.707106 0.707107 0.000000
vn 0.000000 0.707107 0.707107
vn 0.000000 0.707107 0.707107
vn 0.000000 0.707107 0.707107
vn 0.000000 0.707107 0.707107
vn 0.707107 0.707107 0.000000
vn 0.707107 0.707107 0.000000
vn 0.707107 0.707107 0.000000
vn 0.707107 0.707107 0.000000
vn -0.707106 0.000000 -0.707107
vn -0.707106 0.000000 -0.707107
vn -0.707106 0.000000 -0.707107
vn -0.707106 0.000000 -0.707107
vn 0.000000 0.707107 -0.707107
vn 0.000000 0.707107 -0.707107
vn 0.000000 0.707107 -0.707107
vn 0.000000 0.707107 -0.707107
vn 0.707107 0.000000 -0.707107
vn 0.707107 0.000000 -0.707107
vn 0.707107 0.000000 -0.707107
vn 0.707107 0.000000 -0.707107
vn 0.000000 -0.456624 -0.889660
vn 0.000000 -0.456624 -0.889660
vn 0.000000 -0.456624 -0.889660
vn 0.000000 -0.456624 -0.889660
vn 0.000000 0.000000 1.000000
vn 0.000000 0.000000 1.000000
vn 0.000000 0.000000 1.000000
vn 0.000000 0.000000 1.000000
vn 0.000000 1.000000 0.000000
vn 0.000000 1.000000 0.000000
vn 0.000000 1.000000 0.000000
vn 0.000000 1.000000 0.000000
vn 0.000000 0.000000 -1.000000
vn 0.000000 0.000000 -1.000000
vn 0.000000 0.000000 -1.000000
vn 0.000000 0.000000 -1.000000
vn 0.000000 -1.000000 0.000000
vn 0.000000 -1.000000 0.000000
vn 0.000000 -1.000000 0.000000
vn 0.000000 -1.000000 0.000000
vn 1.000000 0.000000 0.000000
vn 1.000000 0.000000 0.000000
vn 1.000000 0.000000 0.000000
vn 1.000000 0.000000 0.000000
vn -1.000000 0.000000 0.000000
vn -1.000000 0.000000 0.000000
vn -1.000000 0.000000 0.000000
vn -1.000000 0.000000 0.000000
vn -0.664685 -0.341154 0.664686
vn -0.664685 -0.341154 0.664686
vn -0.664685 -0.341154 0.664686
vn 0.664685 -0.341155 0.664686
vn 0.664685 -0.341155 0.664686
vn 0.664685 -0.341155 0.664686
vn -0.577350 0.577349 0.577351
vn -0.577350 0.577349 0.577351
vn -0.577350 0.577349 0.577351
vn 0.577350 0.577350 0.577350
vn 0.577350 0.577350 0.577350
vn 0.577350 0.577350 0.577350
vn -0.577350 0.577349 -0.577351
vn -0.577350 0.577349 -0.577351
vn -0.577350 0.577349 -0.577351
vn 0.577350 0.577350 -0.577350
vn 0.577350 0.577350 -0.577350
vn 0.577350 0.577350 -0.577350
vn -0.664685 -0.341154 -0.664686
vn -0.664685 -0.341154 -0.664686
vn -0.664685 -0.341154 -0.664686
vn 0.664685 -0.341155 -0.664686
vn 0.664685 -0.341155 -0.664686
vn 0.664685 -0.341155 -0.664686
vn -0.707107 -0.707107 0.000000
vn -0.707107 -0.707107 0.000000
vn -0.707107 -0.707107 0.000000
vn -0.707107 -0.707107 0.000000
vn 0.000000 -0.707107 0.707107
vn 0.000000 -0.707107 0.707107
vn 0.000000 -0.707107 0.707107
vn 0.000000 -0.707107 0.707107
vn -0.707107 0.000000 0.707107
vn -0.707107 0.000000 0.707107
vn -0.707107 0.000000 0.707107
vn -0.707107 0.000000 0.707107
vn 0.707107 -0.707107 0.000000
vn 0.707107 -0.707107 0.000000
vn 0.707107 -0.707107 0.000000
vn 0.707107 -0.707107 0.000000
vn 0.707107 0.000000 0.707107
vn 0.707107 0.000000 0.707107
vn 0.707107 0.000000 0.707107
vn 0.707107 0.000000 0.707107
vn -0.913992 0.405733 0.000000
vn -0.913992 0.405733 0.000000
vn -0.913992 0.405733 0.000000
vn -0.913992 0.405733 0.000000
vn 0.000000 0.627372 0.778719
vn 0.000000 0.627372 0.778719
vn 0.000000 0.627372 0.778719
vn 0.000000 0.627372 0.778719
vn 0.913992 0.405733 0.000000
vn 0.913992 0.405733 0.000000
vn 0.913992 0.405733 0.000000
vn 0.913992 0.405733 0.000000
vn -0.707107 0.000000 -0.707107
vn -0.707107 0.000000 -0.707107
vn -0.707107 0.000000 -0.707107
vn -0.707107 0.000000 -0.707107
vn 0.000000 0.627372 -0.778719
vn 0.000000 0.627372 -0.778719
vn 0.000000 0.627372 -0.778719
vn 0.000000 0.627372 -0.778719
vn 0.707107 0.000000 -0.707107
vn 0.707107 0.000000 -0.707107
vn 0.707107 0.000000 -0.707107
vn 0.707107 0.000000 -0.707107
vn 0.000000 -0.707107 -0.707107
vn 0.000000 -0.707107 -0.707107
vn 0.000000 -0.707107 -0.707107
vn 0.000000 -0.707107 -0.707107
vn 0.000000 0.000000 1.000000
vn 0.000000 0.000000 1.000000
vn 0.000000 0.000000 1.000000
vn 0.000000 0.000000 1.000000
vn 0.000000 1.000000 0.000000
vn 0.000000 1.000000 0.000000
vn 0.000000 1.000000 0.000000
vn 0.000000 1.000000 0.000000
vn 0.000000 0.000000 -1.000000
vn 0.000000 0.000000 -1.000000
vn 0.000000 0.000000 -1.000000
vn 0.000000 0.000000 -1.000000
vn 0.000000 -1.000000 0.000000
vn 0.000000 -1.000000 0.000000
vn 0.000000 -1.000000 0.000000
vn 0.000000 -1.000000 0.000000
vn 1.000000 0.000000 0.000000
vn 1.000000 0.000000 0.000000
vn 1.000000 0.000000 0.000000
vn 1.000000 0.000000 0.000000
vn -1.000000 0.000000 0.000000
vn -1.000000 0.000000 0.000000
vn -1.000000 0.000000 0.000000
vn -1.000000 0.000000 0.000000
vn -0.577350 -0.577351 0.577350
vn -0.577350 -0.577350 0.577350
vn -0.577350 -0.577351 0.577350
vn 0.577350 -0.577351 0.577350
vn 0.577350 -0.577350 0.577350
vn 0.577350 -0.577351 0.577350
vn -0.614403 0.494992 0.614403
vn -0.614403 0.494992 0.614403
vn -0.614403 0.494992 0.614403
vn 0.614403 0.494992 0.614403
vn 0.614403 0.494992 0.614403
vn 0.614403 0.494992 0.614403
vn -0.614403 0.494992 -0.614403
vn -0.614403 0.494992 -0.614403
vn -0.614403 0.494992 -0.614403
vn 0.614403 0.494992 -0.614403
vn 0.614403 0.494992 -0.614403
vn 0.614403 0.494992 -0.614403
vn -0.577350 -0.577351 -0.577350
vn -0.577350 -0.577350 -0.577350
vn -0.577350 -0.577351 -0.577350
vn 0.577350 -0.577351 -0.577350
vn 0.577350 -0.577350 -0.577350
vn 0.577350 -0.577351 -0.577350
vn -0.889660 -0.456624 0.000000
vn -0.889660 -0.456624 0.000000
vn -0.889660 -0.456624 0.000000
vn -0.889660 -0.456624 0.000000
vn 0.000000 -0.456624 0.889660
vn 0.000000 -0.456624 0.889660
vn 0.000000 -0.456624 0.889660
vn 0.000000 -0.456624 0.889660
vn -0.707107 0.000000 0.707107
vn -0.707107 0.000000 0.707107
vn -0.707107 0.000000 0.707107
vn -0.707107 0.000000 0.707107
vn 0.889659 -0.456625 0.000000
vn 0.889659 -0.456625 0.000000
vn 0.889659 -0.456625 0.000000
vn 0.889659 -0.456625 0.000000
vn 0.707106 0.000000 0.707107
vn 0.707106 0.000000 0.707107
vn 0.707106 0.000000 0.707107
vn 0.707106 0.000000 0.707107
vn -0.707107 0.707107 0.000000
vn -0.707107 0.707107 0.000000
vn -0.707107 0.707107 0.000000
vn -0.707107 0.707107 0.000000
vn 0.000000 0.707107 0.707107
vn 0.000000 0.707107 0.707107
vn 0.000000 0.707107 0.707107
vn 0.000000 0.707107 0.707107
vn 0.707106 0.707107 0.000000
vn 0.707106 0.707107 0.000000
vn 0.707106 0.707107 0.000000
vn 0.707106 0.707107 0.000000
vn -0.707107 0.000000 -0.707107
vn -0.707107 0.000000 -0.707107
vn -0.707107 0.000000 -0.707107
vn -0.707107 0.000000 -0.707107
vn 0.000000 0.707107 -0.707107
vn 0.000000 0.707107 -0.707107
vn 0.000000 0.707107 -0.707107
vn 0.000000 0.707107 -0.707107
vn 0.707106 0.000000 -0.707107
vn 0.707106 0.000000 -0.707107
vn 0.707106 0.000000 -0.707107
vn 0.707106 0.000000 -0.707107
vn 0.000000 -0.456624 -0.889660
vn 0.000000 -0.456624 -0.889660
vn 0.000000 -0.456624 -0.889660
vn 0.000000 -0.456624 -0.889660
vn 0.000000 0.000000 1.000000
vn 0.000000 0.000000 1.000000
vn 0.000000 0.000000 1.000000
vn 0.000000 0.000000 1.000000
vn 0.000000 1.000000 0.000000
vn 0.000000 1.000000 0.000000
vn 0.000000 1.000000 0.000000
vn 0.000000 1.000000 0.000000
vn 0.000000 0.000000 -1.000000
vn 0.000000 0.000000 -1.000000
vn 0.000000 0.000000 -1.000000
vn 0.000000 0.000000 -1.000000
vn 0.000000 -1.000000 0.000000
vn 0.000000 -1.000000 0.000000
vn 0.000000 -1.000000 0.000000
vn 0.000000 -1.000000 0.000000
vn 1.000000 0.000000 0.000000
vn 1.000000 0.000000 0.000000
vn 1.000000 0.000000 0.000000
vn 1.000000 0.000000 0.000000
vn -1.000000 0.000000 0.000000
vn -1.000000 0.000000 0.000000
vn -1.000000 0.000000 0.000000
vn -1.000000 0.000000 0.000000
vn -0.664685 -0.341154 0.664686
vn -0.664685 -0.341154 0.664686
vn -0.664685 -0.341154 0.664686
vn 0.664685 -0.341155 0.664686
vn 0.664685 -0.341155 0.664686
vn 0.664685 -0.341155 0.664686
vn -0.577351 0.577350 0.577351
vn -0.577351 0.577350 0.577351
vn -0.577351 0.577350 0.577351
vn 0.577350 0.577351 0.577350
vn 0.577350 0.577351 0.577350
vn 0.577350 0.577351 0.577350
vn -0.577351 0.577350 -0.577351
vn -0.577351 0.577350 -0.577351
vn -0.577351 0.577350 -0.577351
vn 0.577350 0.577351 -0.577350
vn 0.577350 0.577351 -0.577350
vn 0.577350 0.577351 -0.577350
vn -0.664685 -0.341154 -0.664686
vn -0.664685 -0.341154 -0.664686
vn -0.664685 -0.341154 -0.664686
vn 0.664685 -0.341155 -0.664686
vn 0.664685 -0.341155 -0.664686
vn 0.664685 -0.341155 -0.664686
s off
g pCube6
usemtl initialShadingGroup
f 25/73/65 27/124/66 43/104/67 45/49/68
f 26/143/69 25/73/70 30/74/71 29/141/72
f 27/101/73 26/72/74 32/77/75 31/102/76
f 28/112/77 30/74/78 46/52/79 48/115/80
f 29/75/81 28/142/82 36/113/83 35/78/84
f 31/102/85 33/76/86 38/46/87 37/103/88
f 33/76/89 32/77/90 35/78/91 34/79/92
f 34/79/93 36/113/94 42/114/95 41/47/96
f 37/103/97 39/45/98 44/50/99 43/145/100
f 39/45/101 38/46/102 41/47/103 40/48/104
f 40/48/105 42/114/106 48/140/107 47/139/108
f 45/49/109 44/144/110 47/51/111 46/52/112
f 26/72/113 29/75/114 35/78/115 32/77/116
f 33/76/117 34/79/118 41/47/119 38/46/120
f 39/45/121 40/48/122 47/139/123 44/50/124
f 45/49/125 46/52/126 30/74/127 25/73/128
f 28/112/129 48/115/130 42/114/131 36/113/132
f 43/125/133 27/146/134 31/102/135 37/103/136
f 25/73/137 26/143/138 27/124/139
f 28/112/140 29/141/141 30/74/142
f 31/102/143 32/77/144 33/76/145
f 34/79/146 35/78/147 36/113/148
f 37/103/149 38/46/150 39/45/151
f 40/48/152 41/47/153 42/114/154
f 43/104/155 44/144/156 45/49/157
f 46/52/158 47/51/159 48/115/160
f 49/81/161 51/84/162 67/61/163 69/57/164
f 50/80/165 49/81/166 54/82/167 53/83/168
f 51/84/169 50/80/170 56/87/171 55/105/172
f 52/85/173 54/82/174 70/60/175 72/62/176
f 53/83/177 52/85/178 60/116/179 59/88/180
f 55/126/181 57/127/182 62/128/183 61/129/184
f 57/86/185 56/87/186 59/88/187 58/89/188
f 58/130/189 60/131/190 66/132/191 65/133/192
f 61/106/193 63/53/194 68/58/195 67/61/196
f 63/53/197 62/54/198 65/55/199 64/56/200
f 64/56/201 66/117/202 72/62/203 71/59/204
f 69/57/205 68/58/206 71/59/207 70/60/208
f 50/80/209 53/83/210 59/88/211 56/87/212
f 57/86/213 58/89/214 65/90/215 62/91/216
f 63/53/217 64/56/218 71/59/219 68/58/220
f 69/57/221 70/60/222 54/82/223 49/81/224
f 52/85/225 72/62/226 66/132/227 60/131/228
f 67/61/229 51/84/230 55/126/231 61/129/232
f 49/81/233 50/80/234 51/84/235
f 52/85/236 53/83/237 54/82/238
f 55/105/239 56/87/240 57/86/241
f 58/89/242 59/88/243 60/116/244
f 61/106/245 62/54/246 63/53/247
f 64/56/248 65/55/249 66/117/250
f 67/61/251 68/58/252 69/57/253
f 70/60/254 71/59/255 72/62/256
f 73/93/257 75/107/258 91/111/259 93/68/260
f 74/92/261 73/93/262 78/94/263 77/95/264
f 75/107/265 74/92/266 80/108/267 79/135/268
f 76/118/269 78/94/270 94/71/271 96/123/272
f 77/95/273 76/118/274 84/119/275 83/120/276
f 79/109/277 81/96/278 86/64/279 85/134/280
f 81/96/281 80/97/282 83/98/283 82/99/284
f 82/99/285 84/100/286 90/67/287 89/65/288
f 85/110/289 87/136/290 92/69/291 91/111/292
f 87/63/293 86/64/294 89/65/295 88/66/296
f 88/121/297 90/122/298 96/123/299 95/70/300
f 93/68/301 92/69/302 95/70/303 94/71/304
f 74/92/305 77/95/306 83/120/307 80/108/308
f 81/96/309 82/99/310 89/65/311 86/64/312
f 87/136/313 88/121/314 95/70/315 92/69/316
f 93/68/317 94/71/318 78/94/319 73/93/320
f 76/118/321 96/123/322 90/67/323 84/100/324
f 91/111/325 75/107/326 79/138/327 85/137/328
f 73/93/329 74/92/330 75/107/331
f 76/118/332 77/95/333 78/94/334
f 79/109/335 80/97/336 81/96/337
f 82/99/338 83/98/339 84/100/340
f 85/134/341 86/64/342 87/63/343
f 88/66/344 89/65/345 90/67/346
f 91/111/347 92/69/348 93/68/349
f 94/71/350 95/70/351 96/123/352
